<svg height="512pt" viewBox="-53 0 512 512" width="512pt" xmlns="http://www.w3.org/2000/svg"><path d="m143.25 176.386719 15.621094 49.476562c6.03125 19.105469 7.175781 39.417969 3.328125 59.082031l-4.597657 23.511719h92.832032l-4.597656-23.503906c-3.847657-19.667969-2.699219-39.988281 3.332031-59.097656l15.625-49.46875zm0 0" fill="#fecba9"/><path d="m245.839844 284.953125 4.59375 23.503906h-16.234375l-4.59375-23.503906c-3.851563-19.667969-2.699219-39.984375 3.328125-59.101563l15.625-49.464843h16.234375l-15.625 49.464843c-6.039063 19.117188-7.179688 39.433594-3.328125 59.101563zm0 0" fill="#ffb38d"/><path d="m276.335938 115.707031v-35.890625c0-39.9375-32.378907-72.316406-72.316407-72.316406-39.941406 0-72.316406 32.375-72.316406 72.316406v35.890625c0 10.054688-3.332031 19.914063-9.820313 27.59375-5.828124 6.894531-9.261718 15.875-9.011718 25.664063.523437 20.746094 17.902344 37.480468 38.65625 37.265625 20.941406-.21875 84.039062-.21875 104.984375 0 20.75.214843 38.128906-16.519531 38.65625-37.265625.246093-9.789063-3.183594-18.769532-9.011719-25.664063-6.488281-7.679687-9.820312-17.539062-9.820312-27.59375zm0 0" fill="#fe621d"/><path d="m295.171875 168.960938c-.53125 20.746093-17.902344 37.488281-38.660156 37.265624-3.410157-.039062-7.945313-.070312-13.230469-.089843 19.402344-1.324219 35.15625-17.425781 35.65625-37.175781.242188-9.785157-3.1875-18.769532-9.011719-25.664063-6.488281-7.679687-9.820312-17.535156-9.820312-27.589844v-35.886719c0-37.195312-28.078125-67.828124-64.199219-71.863281 2.65625-.304687 5.363281-.457031 8.113281-.457031 39.933594 0 72.308594 32.375 72.308594 72.320312v35.890626c0 10.050781 3.34375 19.910156 9.828125 27.589843 5.828125 6.890625 9.257812 15.875 9.015625 25.660157zm0 0" fill="#e24d10"/><path d="m391.789062 209.214844c-7.507812-4.484375-17.207031-1.933594-21.554687 5.613281-3.34375 5.808594-10.609375 7.910156-16.539063 4.777344l-103.21875-54.519531c-2.3125-1.21875-4.785156-1.792969-7.226562-1.800782h-79.800781c-2.441407.007813-4.914063.582032-7.222657 1.800782l-103.222656 54.519531c-5.929687 3.132812-13.195312 1.03125-16.539062-4.777344-4.347656-7.546875-14.046875-10.09375-21.554688-5.613281-7.488281 4.46875-9.558594 14.558594-5.046875 22.023437 3.203125 5.304688 7.355469 9.695313 12.105469 13.070313 13.015625 9.246094 30.550781 10.894531 45.632812 2.929687l87.605469-46.273437c0 7.15625 5.804688 12.957031 12.960938 12.957031h70.363281c7.15625 0 12.957031-5.800781 12.957031-12.957031l87.609375 46.273437c15.082032 7.964844 32.617188 6.316407 45.632813-2.929687 4.75-3.375 8.898437-7.765625 12.105469-13.070313 4.511718-7.464843 2.441406-17.554687-5.046876-22.023437zm0 0" fill="#ffb38d"/><path d="m187.789062 100.011719h31.730469v71.867187h-31.730469zm0 0" fill="#ffb38d"/><path d="m125.691406 307.945312c-15.09375-6.128906-33.046875-3.0625-45.285156 9.175782-.019531.019531-.035156.035156-.054688.054687-2.523437 2.53125-6.5625 2.53125-9.085937 0-.015625-.019531-.03125-.035156-.050781-.054687-12.242188-12.238282-30.195313-15.304688-45.285156-9.175782-6.132813 15.09375-3.066407 33.046876 9.175781 45.289063 11.023437 11.023437 26.675781 14.578125 40.703125 10.703125 14.027344 3.875 29.679687.320312 40.703125-10.703125 12.246093-12.242187 15.308593-30.195313 9.179687-45.289063zm0 0" fill="#65efa7"/><path d="m161.597656 301.257812c-5.710937 0-10.152344 4.96875-9.511718 10.644532 5.132812 45.453125 11.425781 101.464844 9.871093 108.933594-3.414062 16.378906-22.25 24.457031-37.507812 20.53125-14.84375-3.824219-26.535157-17.710938-28.101563-32.925782-.179687-1.765625-5.011718-48.785156-5.011718-48.785156-.78125-7.667969-7.074219-13.949219-15.199219-14.292969-8.484375-.363281-15.675781 6.246094-16.542969 14.691407l-4.976562 48.4375c-2.039063 22.113281 5.402343 44.933593 19.332031 62.109374 14.925781 18.4375 36.957031 30.371094 60.472656 33.222657 24.757813 3.007812 50.464844-4.257813 70.148437-19.089844 15.835938-11.933594 29.054688-29.683594 35.050782-48.675781 6.992187-22.152344 7.304687-47.015625 9.628906-69.664063 0 0 2.917969-28.414062 5.609375-54.589843.578125-5.644532-3.847656-10.546876-9.519531-10.546876zm0 0" fill="#3ad391"/><path d="m254.863281 311.808594c-2.691406 26.171875-5.613281 54.585937-5.613281 54.585937-2.320312 22.652344-2.636719 47.511719-9.625 69.664063-5.996094 18.992187-19.21875 36.742187-35.054688 48.679687-19.683593 14.828125-45.390624 22.101563-70.148437 19.085938-.558594-.070313-1.121094-.144531-1.679687-.226563 16.652343-2.28125 32.691406-8.847656 45.992187-18.859375 15.835937-11.9375 29.046875-29.6875 35.042969-48.683593 6.996094-22.148438 7.304687-47.007813 9.636718-69.660157 0 0 2.910157-28.414062 5.597657-54.585937.582031-5.644532-3.839844-10.550782-9.511719-10.550782h25.839844c5.671875 0 10.101562 4.90625 9.523437 10.550782zm0 0" fill="#2db37a"/><path d="m203.863281 208.660156c0-2.421875-.953125-4.78125-2.761719-6.628906-5.359374-5.480469-19.636718-14.183594-30.0625-13.742188-18.054687.765626-18.394531 10.472657-18.898437 25.113282-.554687 16.03125 1.113281 26.773437 20.777344 26.773437 9.601562 0 23.230469-8.578125 28.109375-13.652343 1.816406-1.886719 2.835937-4.253907 2.835937-6.707032zm0 0" fill="#39aaff"/><path d="m203.859375 208.660156v11.152344c0 2.453125-1.019531 4.828125-2.832031 6.710938-4.574219 4.757812-16.855469 12.597656-26.285156 13.546874 4.347656-3.28125 8.097656-6.996093 10.214843-9.847656 1.8125-2.453125 2.832031-5.53125 2.832031-8.730468v-14.511719c0-3.136719-.949218-6.210938-2.761718-8.617188-2.21875-2.960937-5.988282-6.636719-10.378906-9.898437 9.890624 1.285156 21.695312 8.699218 26.449218 13.566406 1.8125 1.84375 2.761719 4.207031 2.761719 6.628906zm0 0" fill="#2584f6"/><path d="m203.863281 208.660156c0-2.421875.949219-4.78125 2.757813-6.628906 5.359375-5.480469 19.636718-14.183594 30.0625-13.742188 18.054687.765626 18.394531 10.472657 18.898437 25.113282.554688 16.03125-1.113281 26.773437-20.777343 26.773437-9.601563 0-23.230469-8.578125-28.109376-13.652343-1.816406-1.886719-2.832031-4.253907-2.832031-6.707032zm0 0" fill="#39aaff"/><path d="m234.808594 240.171875c-2.109375 0-4.410156-.417969-6.773438-1.109375 10.910156-3.128906 11.925782-12.660156 11.480469-25.667969-.417969-12.128906-.726563-20.867187-11.09375-23.941406 2.863281-.824219 5.675781-1.273437 8.261719-1.160156 18.054687.761719 18.390625 10.46875 18.898437 25.101562.554688 16.03125-1.117187 26.777344-20.773437 26.777344zm0 0" fill="#2584f6"/><path d="m203.65625 147.953125c-22.035156 0-39.898438-17.863281-39.898438-39.898437v-14.441407c0-17.53125 14.210938-31.746093 31.746094-31.746093h16.304688c17.53125 0 31.746094 14.214843 31.746094 31.746093v14.441407c0 22.035156-17.863282 39.898437-39.898438 39.898437zm0 0" fill="#fecba9"/><path d="m195.867188 28.457031c14.214843 14.214844 14.214843 37.257813 0 51.472657-9.136719 9.136718-21.917969 12.402343-33.660157 9.792968-9.78125-2.167968-13.171875-14.433594-6.085937-21.519531zm0 0" fill="#fe621d"/><path d="m211.445312 28.457031c-14.214843 14.214844-14.214843 37.257813 0 51.472657 9.136719 9.136718 21.917969 12.402343 33.660157 9.792968 9.78125-2.167968 13.171875-14.433594 6.085937-21.519531zm0 0" fill="#fe621d"/><path d="m405.988281 216.863281c-1.492187-5.992187-5.171875-10.996093-10.355469-14.089843-5.363281-3.203126-11.640624-4.09375-17.6875-2.523438-6.046874 1.574219-11.089843 5.425781-14.210937 10.835938-1.320313 2.296874-4.191406 3.125-6.535156 1.886718l-57.03125-30.121094c1.53125-4.398437 2.378906-8.980468 2.5-13.695312.28125-11.234375-3.546875-22.132812-10.78125-30.695312-5.191407-6.140626-8.050781-14.222657-8.050781-22.753907v-35.890625c0-44.011718-35.804688-79.816406-79.816407-79.816406-14.726562 0-29.121093 4.050781-41.632812 11.710938-3.53125 2.164062-4.640625 6.78125-2.476563 10.3125 2.160156 3.535156 6.78125 4.644531 10.3125 2.480468 10.152344-6.21875 21.835938-9.503906 33.796875-9.503906 35.738281 0 64.816407 29.074219 64.816407 64.816406v35.890625c0 12.070313 4.117187 23.589844 11.59375 32.4375 4.859374 5.75 7.429687 13.074219 7.238281 20.628907-.058594 2.371093-.398438 4.695312-.992188 6.953124l-32.695312-17.269531c-3.28125-1.734375-6.984375-2.660156-10.734375-2.671875h-16.226563v-6.511718c14.335938-8.160157 24.035157-23.574219 24.035157-41.21875v-12.214844c.886718-.296875 1.769531-.609375 2.644531-.964844 3.835937-1.554688 5.6875-5.929688 4.128906-9.769531-1.554687-3.839844-5.929687-5.683594-9.765625-4.128907-10.789062 4.375-23.082031 1.882813-31.3125-6.351562-5.460938-5.457031-8.464844-12.714844-8.464844-20.433594 0-4.144531-3.359375-7.5-7.5-7.5-4.144531 0-7.5 3.355469-7.5 7.5 0 4.761719.765625 9.40625 2.214844 13.800782-1.320312 2.425781-2.964844 4.660156-4.9375 6.632812-7.792969 7.789062-19.554688 10.480469-29.964844 6.855469-3.90625-1.359375-8.1875.703125-9.550781 4.617187-1.359375 3.910156.707031 8.1875 4.617187 9.550782.195313.066406.394532.125.589844.191406v12.214844c0 17.640624 9.699219 33.054687 24.035156 41.210937v6.515625h-16.867187c-3.722656.011719-7.421875.9375-10.699219 2.671875l-31.519531 16.644531c-.496094-2.0625-.78125-4.175781-.835937-6.328125-.191407-7.550781 2.378906-14.878906 7.242187-20.628906 7.476563-8.847656 11.589844-20.367187 11.589844-32.4375v-35.886719c0-11.546875 3.089843-22.898437 8.929687-32.820312 2.101563-3.566406.910156-8.164063-2.65625-10.265625-3.570312-2.105469-8.167968-.914063-10.269531 2.65625-7.195313 12.230469-11.003906 26.207031-11.003906 40.429687v35.890625c0 8.53125-2.855469 16.609375-8.046875 22.753907-7.238282 8.5625-11.066406 19.460937-10.78125 30.691406.113281 4.492187.882812 8.878906 2.289062 13.101562l-58.160156 30.71875c-2.34375 1.238282-5.214844.410156-6.539062-1.890625-3.117188-5.40625-8.160157-9.257812-14.207032-10.832031-6.042968-1.570312-12.324218-.675781-17.6875 2.523438-5.183594 3.09375-8.863281 8.097656-10.355468 14.089843-1.542969 6.175781-.546876 12.824219 2.730468 18.253907 3.675782 6.082031 8.449219 11.230468 14.183594 15.304687 8.816406 6.265625 19.101562 9.441406 29.464844 9.441406 8.1875 0 16.417968-1.984375 24.011718-5.992187l73.484376-38.8125c-.226563 9.300781.390624 18.714844 6.777343 25.324218 1.203125 1.246094 2.550781 2.324219 4.058594 3.246094 2.191406 13.257813 2 26.664063-.582031 39.875l-2.550782 13.046875c-1.25.8125-2.410156 1.773438-3.421874 2.90625-3.234376 3.621094-4.777344 8.464844-4.234376 13.285157 4.183594 37.039062 11.183594 99.023437 9.980469 106.5625-1.261719 6.0625-5.359375 9.714843-8.570312 11.714843-5.722657 3.5625-13.28125 4.738281-19.722657 3.085938-11.78125-3.035157-21.25-14.148438-22.511718-26.429688l-3.75-36.484375c8.210937-2.246094 15.664062-6.5625 21.757812-12.65625 14.046875-14.046875 18.292969-35.011718 10.820313-53.410156-.761719-1.875-2.25-3.363281-4.125-4.125-18.0625-7.34375-38.601563-3.378906-52.703125 10.128906-14.039063-13.496094-34.609375-17.480468-52.703125-10.128906-1.875.761719-3.363281 2.25-4.125 4.125-7.476563 18.398438-3.226563 39.363281 10.820312 53.410156 5.933594 5.933594 13.164063 10.1875 21.128907 12.480469l-3.78125 36.789063c-2.191407 23.769531 5.453124 48.382812 20.96875 67.519531 15.984374 19.742187 39.824218 32.84375 65.398437 35.945312 4.023437.492188 8.070313.730469 12.121094.730469 22.554687 0 45.140625-7.480469 63.445312-21.273438 17.632813-13.285156 31.367188-32.386718 37.6875-52.40625 5.550781-17.578124 7.097657-37.011718 8.34375-52.628906.328125-4.128906-2.753906-7.742187-6.882812-8.070312-4.148438-.328125-7.742188 2.75-8.070313 6.878906-1.183594 14.859375-2.65625 33.351562-7.691406 49.304688-5.324219 16.859374-17.441406 33.660156-32.414062 44.941406-18.519532 13.957031-42.113282 20.382812-64.730469 17.636718-21.746094-2.640624-41.992188-13.753906-55.550781-30.503906-12.882813-15.886718-19.496094-37.082031-17.695313-56.617187l4.976563-48.4375c.480468-4.65625 4.285156-8.179688 8.765624-7.96875 4.167969.179687 7.632813 3.429687 8.054688 7.566406l5.011719 48.789063c1.882812 18.296874 16.050781 34.875 33.691406 39.417968 10.4375 2.691406 22.167969.863282 31.390625-4.871094 8.054688-5.015624 13.5-12.609374 15.328125-21.390624 1.550781-7.433594-1.910156-41.8125-9.757813-111.308594-.085937-.757813.230469-1.292969.515626-1.609375.277343-.3125.777343-.6875 1.542968-.6875h83.742188c.761718 0 1.257812.371093 1.535156.683593.28125.308594.601562.839844.523438 1.59375l-3.917969 38.132813c-.421875 4.117187 2.574219 7.800781 6.695312 8.226563 4.125.417968 7.804688-2.574219 8.226563-6.695313l3.917968-38.132813c.492188-4.792968-1.078124-9.597656-4.308593-13.175781-.640625-.710937-1.347657-1.339843-2.089844-1.925781l-2.726563-13.953125c-2.601562-13.292969-2.777343-26.78125-.542968-40.113281 1.363281-.871094 2.597656-1.875 3.703125-3.019532 6.261719-6.476562 6.976562-15.65625 6.789062-24.78125l8.882813 4.691407c1.117187.59375 2.3125.871093 3.496094.871093 2.691406 0 5.292968-1.453124 6.636718-4 1.9375-3.660156.535156-8.199218-3.128906-10.132812l-17.507812-9.25c-.523438-2.023438-1.242188-3.949219-2.246094-5.765625-3.910156-7.082031-11.199219-10.75-22.277344-11.21875-.355469-.019531-.710938-.023437-1.070312-.023437-11.707032 0-25.128907 7.847656-32.066407 13.636718-6.941406-5.789062-20.367187-13.636718-32.070312-13.636718-.359375 0-.71875.007812-1.074219.023437-11.074219.46875-18.363281 4.136719-22.277344 11.21875-.898437 1.625-1.5625 3.339844-2.066406 5.132813l-82.277344 43.457031c-12.167968 6.429687-26.644531 5.503906-37.785156-2.410157-4.050781-2.878906-7.425781-6.523437-10.03125-10.835937-1.226562-2.03125-1.597656-4.535156-1.019531-6.863281.523437-2.089844 1.761719-3.808594 3.492187-4.839844 1.886719-1.128906 4.097656-1.445312 6.21875-.890625 2.125.554687 3.898438 1.90625 4.992188 3.804687 5.367187 9.324219 17.027344 12.695313 26.542968 7.667969l103.222657-54.523437c1.164062-.613282 2.421875-.925782 3.722656-.929688h17.105469c.863281 3.1875 3.769531 5.539063 7.230468 5.539063 4.144532 0 7.5-3.359375 7.5-7.5v-14.121094c2.71875.484375 5.511719.753906 8.367188.753906s5.644531-.269531 8.363281-.753906v14.121094c0 4.140625 3.355469 7.5 7.5 7.5 3.460938 0 6.371094-2.351563 7.230469-5.539063h16.472656c1.324219.003906 2.582032.316406 3.75.933594l103.21875 54.519531c9.515625 5.023438 21.175782 1.660157 26.542969-7.664062 1.09375-1.898438 2.867187-3.253907 4.992187-3.804688 2.121094-.558593 4.328126-.242187 6.21875.886719 1.730469 1.03125 2.96875 2.753906 3.492188 4.84375.578125 2.328125.207031 4.828125-1.019531 6.859375-2.605469 4.3125-5.980469 7.960937-10.03125 10.835937-11.140625 7.917969-25.617188 8.839844-37.785157 2.414063l-32.445312-17.140625c-3.667969-1.9375-8.203125-.53125-10.136719 3.128906-1.933593 3.664063-.53125 8.199219 3.128907 10.136719l32.449218 17.136719c7.59375 4.011718 15.824219 5.996094 24.011719 5.996094 10.363281 0 20.648437-3.179688 29.464844-9.441407 5.734375-4.074219 10.507812-9.226562 14.183593-15.308593 3.277344-5.429688 4.273438-12.078126 2.730469-18.253907zm-329.53125 121.003907c-11.175781-.457032-20.996093 7.199218-23.710937 17.953124-4.605469-1.695312-8.804688-4.359374-12.335938-7.890624-9.007812-9.007813-12.226562-22.097657-8.609375-34.109376 12.011719-3.617187 25.101563-.402343 34.078125 8.574219.027344.023438.058594.054688.085938.085938 2.640625 2.640625 6.132812 4.09375 9.847656 4.09375s7.214844-1.457031 9.855469-4.105469c.015625-.015625.027343-.03125.039062-.042969 9.007813-9.003906 22.09375-12.222656 34.109375-8.605469 3.617188 12.015626.398438 25.101563-8.605468 34.109376-3.683594 3.683593-8.078126 6.425781-12.910157 8.105468-2.339843-10.097656-11.261719-17.714844-21.84375-18.167968zm162.015625-51.476563 1.441406 7.371094h-28.757812v-7.160157c0-4.140624-3.359375-7.5-7.5-7.5-4.144531 0-7.5 3.359376-7.5 7.5v7.160157h-28.039062l1.441406-7.378907c2.511718-12.832031 3.03125-25.824218 1.566406-38.734374.585938.015624 1.183594.027343 1.789062.027343 11.011719 0 24.25-7.957031 30.945313-13.582031 6.691406 5.625 19.933594 13.582031 30.945313 13.582031.71875 0 1.417968-.019531 2.105468-.042969-1.464844 12.917969-.945312 25.917969 1.5625 38.757813zm-26.492187-79.117187c4.636719-4.738282 16.535156-11.503907 23.90625-11.503907.160156 0 .320312.003907.480469.011719 10.707031.453125 11.1875 2.441406 11.722656 17.878906.234375 6.867188.09375 13.597656-2.519532 16.300782-1.742187 1.800781-5.363281 2.714843-10.765624 2.714843-6.507813 0-18.394532-6.867187-22.703126-11.347656-.480468-.5-.742187-1.035156-.742187-1.511719v-11.15625c0-.492187.214844-.96875.621094-1.386718zm-40.625-11.492188c.15625-.007812.316406-.011719.480469-.011719 7.367187 0 19.269531 6.765625 23.902343 11.503907.40625.414062.621094.894531.621094 1.386718v11.15625c0 .476563-.261719 1.011719-.738281 1.507813-4.3125 4.484375-16.195313 11.351562-22.707032 11.351562-5.402343 0-9.023437-.914062-10.765624-2.714843-2.609376-2.703126-2.753907-9.433594-2.515626-16.300782.53125-15.433594 1.011719-17.425781 11.722657-17.878906zm-.097657-87.726562v-10.023438c11.0625-.3125 21.875-4.761719 29.910157-12.796875.871093-.871094 1.703125-1.777344 2.492187-2.710937.789063.929687 1.609375 1.839843 2.480469 2.710937 8.136719 8.136719 18.882813 12.566406 29.914063 12.847656v9.972657c0 17.863281-14.535157 32.398437-32.398438 32.398437-17.867188 0-32.398438-14.53125-32.398438-32.398437zm0 0"/><path d="m186.671875 100.0625h-.078125c-.03125-.003906-.0625-.003906-.097656-.003906-4.09375 0-7.40625 3.296875-7.457032 7.40625-.054687 4.140625 3.300782 7.542968 7.441407 7.59375.03125.003906.066406.003906.097656.003906 4.097656 0 7.445313-3.296875 7.496094-7.40625.054687-4.140625-3.261719-7.542969-7.402344-7.59375zm0 0"/><path d="m220.90625 100.0625h-.078125c-4.132813-.097656-7.503906 3.261719-7.554687 7.402344-.050782 4.144531 3.304687 7.542968 7.445312 7.59375.03125.003906.0625.003906.09375.003906 4.097656 0 7.445312-3.296875 7.496094-7.40625.054687-4.140625-3.261719-7.542969-7.402344-7.59375zm0 0"/></svg>