<?xml version="1.0"?>
<svg xmlns="http://www.w3.org/2000/svg" xmlns:xlink="http://www.w3.org/1999/xlink" xmlns:svgjs="http://svgjs.com/svgjs" version="1.1" width="512" height="512" x="0" y="0" viewBox="0 0 512 512" style="enable-background:new 0 0 512 512" xml:space="preserve" class=""><g><g xmlns="http://www.w3.org/2000/svg"><path d="m469.573 199.895h-63.433c-24.496-114.073-81.614-186.019-150.14-186.057h-.062c-68.44 0-125.578 71.932-150.129 186.036h-63.382c-.257 0-.514.015-.77.044-3.797.428-6.528 3.853-6.1 7.65l30.651 271.796c1.241 10.698 10.291 18.776 21.061 18.799h337.463c10.789-.026 19.846-8.134 21.061-18.854l30.651-271.741c.027-.248.041-.497.041-.747.004-3.822-3.091-6.923-6.912-6.926zm-356.103 34.912c18.681-123.904 75.935-207.132 142.481-207.132h.049c66.629.035 123.883 83.338 142.454 207.291.085.588.128 1.181.128 1.775.002 6.855-5.554 12.414-12.409 12.416h-.021c-6.108-.021-11.286-4.497-12.191-10.537-15.768-110.779-62.077-182.41-117.988-182.41-55.822 0-102.123 71.542-118.037 182.279-.909 6.038-6.092 10.506-12.198 10.517-.597 0-1.193-.044-1.784-.13-6.78-.991-11.473-7.289-10.484-14.069zm239.187-34.913h-193.353c18.779-79.107 55.566-129.847 96.696-129.847 41.167.024 77.94 50.747 96.657 129.847zm85.071 227.418h-95.311c-3.821 0-6.919 3.098-6.919 6.919s3.098 6.919 6.919 6.919h93.751l-4.124 36.594c-.378 3.75-3.544 6.599-7.313 6.58h-337.463c-3.778.038-6.962-2.808-7.348-6.566l-4.125-36.608h80.641c3.821 0 6.919-3.098 6.919-6.919s-3.098-6.919-6.919-6.919h-82.2l-24.067-213.6h52.857c-1.163 6.232-2.235 12.576-3.207 19.034-.189 1.272-.284 2.555-.284 3.841-.007 14.494 11.737 26.249 26.23 26.256 12.978-.037 23.982-9.552 25.891-22.39 1.319-9.189 2.863-18.101 4.61-26.721h199.419c1.748 8.656 3.29 17.608 4.604 26.838 1.909 12.839 12.903 22.364 25.884 22.424h.007c1.282 0 2.562-.094 3.831-.281 14.338-2.117 24.246-15.457 22.129-29.795-.975-6.511-2.052-12.905-3.222-19.186h52.879z" fill="#5282b5" data-original="#000000" style="" class=""/><path d="m293.985 427.312h-20.549c-3.821 0-6.919 3.098-6.919 6.919s3.098 6.919 6.919 6.919h20.549c3.821 0 6.919-3.098 6.919-6.919s-3.098-6.919-6.919-6.919z" fill="#5282b5" data-original="#000000" style="" class=""/><path d="m225.003 427.312h-20.134c-3.821 0-6.919 3.098-6.919 6.919s3.098 6.919 6.919 6.919h20.134c3.821 0 6.919-3.098 6.919-6.919s-3.098-6.919-6.919-6.919z" fill="#5282b5" data-original="#000000" style="" class=""/></g></g></svg>
